<svg xmlns="http://www.w3.org/2000/svg" width="24" height="24" viewBox="0 0 24 24">
  <path fill="black" d="M12 .5C5.73.5.5 5.73.5 12c0 5.09 3.29 9.39 7.86 10.92.58.11.79-.25.79-.56v-2c-3.2.7-3.87-1.39-3.87-1.39-.52-1.31-1.28-1.66-1.28-1.66-1.05-.72.08-.7.08-.7 1.16.08 1.77 1.2 1.77 1.2 1.03 1.76 2.7 1.25 3.36.96.1-.75.4-1.25.73-1.54-2.55-.29-5.23-1.28-5.23-5.72 0-1.26.45-2.3 1.2-3.11-.12-.3-.52-1.52.12-3.16 0 0 .97-.31 3.18 1.19a11.2 11.2 0 0 1 2.9-.39c.99 0 1.99.13 2.9.39 2.21-1.5 3.18-1.19 3.18-1.19.64 1.64.24 2.86.12 3.16.75.81 1.2 1.85 1.2 3.11 0 4.46-2.69 5.42-5.25 5.71.41.35.78 1.03.78 2.07v3.06c0 .31.21.68.79.56A10.97 10.97 0 0 0 23.5 12c0-6.27-5.23-11.5-11.5-11.5Z"></path>
</svg>
